<svg width="110px" height="129px" viewBox="0 0 110 129" version="1.1" xmlns="http://www.w3.org/2000/svg" xmlns:xlink="http://www.w3.org/1999/xlink" xlink:href="data:image/png;base64">
    <title>Icon Shape 2</title>
    <g id="Atoms" stroke="none" stroke-width="1" fill="none" fill-rule="evenodd">
        <g id="Icon-Shape-2" transform="translate(0.774648, 0.160714)" fill="#FFFFFF" fill-rule="nonzero">
            <path d="M54.2253521,0 C27.1126761,0 -1.42108547e-14,3.38541667 -1.42108547e-14,27.0833333 L-1.42108547e-14,91.40625 C-1.42108547e-14,104.494248 10.6214137,115.104167 23.7235915,115.104167 L13.556338,125.260417 L13.556338,128.645833 L28.6716549,128.645833 L42.227993,115.104167 L67.7816901,115.104167 L81.3380282,128.645833 L94.8943662,128.645833 L94.8943662,125.260417 L84.7271127,115.104167 C97.8292905,115.104167 108.450704,104.494248 108.450704,91.40625 L108.450704,27.0833333 C108.450704,3.38541667 84.1848592,0 54.2253521,0 M17.7235915,101.5625 C12.1083725,101.5625 7.55633803,97.015392 7.55633803,91.40625 C7.55633803,85.797108 12.1083725,81.25 17.7235915,81.25 C23.3388106,81.25 27.8908451,85.797108 27.8908451,91.40625 C27.8908451,97.015392 23.3388106,101.5625 17.7235915,101.5625 M30.5563381,75.0833337 L5.55633811,75.0833337 L5.55633811,38.0833337 L30.5563381,38.0833337 L30.5563381,75.0833337 M76.8943661,75.0833337 L76.8943661,38.0833337 L101.894366,38.0833337 L101.894366,75.0833337 L76.8943661,75.0833337 M38.8943661,101.083334 L38.8943661,38.0833337 L69.8943661,38.0833337 L69.8943661,101.083334 L38.8943661,101.083334 M88.7271127,101.5625 C83.1118936,101.5625 78.5598592,97.015392 78.5598592,91.40625 C78.5598592,85.797108 83.1118936,81.25 88.7271127,81.25 C94.3423317,81.25 98.8943662,85.797108 98.8943662,91.40625 C98.8943662,97.015392 94.3423317,101.5625 88.7271127,101.5625 Z M83.2271126,27.5744044 C80.6494597,27.5744044 78.5598591,25.4870653 78.5598591,22.9122021 C78.5598591,20.3373388 80.6494597,18.2499997 83.2271126,18.2499997 C85.8047655,18.2499997 87.8943661,20.3373388 87.8943661,22.9122021 C87.8943661,25.4870653 85.8047655,27.5744044 83.2271126,27.5744044 Z M95.2271126,27.5744044 C92.6494597,27.5744044 90.5598591,25.4870653 90.5598591,22.9122021 C90.5598591,20.3373388 92.6494597,18.2499997 95.2271126,18.2499997 C97.8047655,18.2499997 99.8943661,20.3373388 99.8943661,22.9122021 C99.8943661,25.4870653 97.8047655,27.5744044 95.2271126,27.5744044 Z M24.2271126,27.5744044 C21.6494597,27.5744044 19.5598591,25.4870653 19.5598591,22.9122021 C19.5598591,20.3373388 21.6494597,18.2499997 24.2271126,18.2499997 C26.8047655,18.2499997 28.8943661,20.3373388 28.8943661,22.9122021 C28.8943661,25.4870653 26.8047655,27.5744044 24.2271126,27.5744044 Z M12.2271126,27.5744044 C9.64945968,27.5744044 7.55985911,25.4870653 7.55985911,22.9122021 C7.55985911,20.3373388 9.64945968,18.2499997 12.2271126,18.2499997 C14.8047655,18.2499997 16.8943661,20.3373388 16.8943661,22.9122021 C16.8943661,25.4870653 14.8047655,27.5744044 12.2271126,27.5744044 Z" id="Icon-Shape"></path>
        </g>
    </g>
</svg>